<?xml version="1.0" encoding="utf-8"?>
<!-- Generator: Adobe Illustrator 26.0.3, SVG Export Plug-In . SVG Version: 6.00 Build 0)  -->
<svg version="1.0" id="Layer_1" xmlns="http://www.w3.org/2000/svg" xmlns:xlink="http://www.w3.org/1999/xlink" x="0px" y="0px"
	 viewBox="0 0 926 700.6" style="enable-background:new 0 0 926 700.6;" xml:space="preserve">
<style type="text/css">
	.st0{fill-rule:evenodd;clip-rule:evenodd;fill:#FEFEFE;}
	.st1{fill-rule:evenodd;clip-rule:evenodd;fill:#333333;}
</style>
<path class="st0" d="M838,317.5l-2.1-11.9c-2-5.9-5.2-11.2-9.4-15.8c-5.8-6.2-12.7-9.3-20.6-9.3c-1.3,0-2.7,0.1-4,0.2
	c-7.2,0.9-13.2,4.2-17.6,6.9l-2.4,1.5c-3.3,1.8-6.4,3.9-9.3,6.2l-2,1.6c-1.6,1.3-3.9,3.7-5.5,5c0.2-0.9,1-2.8,1.2-3.7l2-9.5l0.8-3.7
	c0.7-3.2,1.2-6,1.5-8.3l0.8-4.3c0.3-1.1,0.5-2.5,0.8-4l1.6-7.4l1.5-7.2l1-5c1-3.9,1.8-8.2,2.7-12.7c0.8-3.8,1.2-7.6,1.5-11l0.2-2.4
	c0.6-4.8,0.8-9.6,0.8-14.4v-2.6c0-4.5,0-10.2-2.3-15.9c-3.9-9.8-12.8-16.7-23.2-18.1c-3.5-0.6-7-0.9-10.6-1c-2.7,0-5.4,0.3-8,0.9
	c-9.4,2-15,8.3-17.9,11.6l-0.9,0.9l-1.2,1.1c-0.9,0.8-1.8,1.7-2.7,2.6c-0.6-3.5-2.2-6.9-4.5-9.6c-5.3-5.8-13.3-9.6-22.7-10.6
	c-1-0.1-2.1-0.1-3.2-0.1c-5.9,0-10.9,1.7-14.6,2.9l-1.5,0.5l-0.8,0.2c-4.2,1.3-10.5,3.3-15.5,8.1c-1.2-2.4-2.6-4.7-4.4-6.7
	c-6.8-7.9-17.8-9.6-23.8-10c-0.9-0.1-1.8-0.2-2.7-0.1c-3.2,0-6,0.3-8.4,0.5l-2.2,0.3c-1.6,0-3.5-0.2-5.6-0.4
	c-2.5-0.2-5.3-0.5-8.3-0.6c-4.7,0-9.3-0.1-14-0.2c-0.6-0.1-1.2-0.1-1.8-0.1c-2,0-4,0-5.9,0.1l-5,0.1h-2c-2.7,0-5.4,0.2-8.1,0.5
	c-1.8,0.1-3.5,0.3-5,0.3h-0.1l-3.3-0.2c-2.3,0.1-5.2-0.3-8.4-0.3h-2.4c-4.3,0-8.6,0.3-12.8,1c-3.9,0.7-15.8,2.7-22,13.9l-0.4,0.7
	c-0.9,1.5-1.8,3-2.5,4.5c-3.6-3.7-7.8-6.9-12.3-9.3c-3.3-1.7-6.8-3-10.4-4c-1.1-0.2-2.2-0.6-3.3-1c-2.2-0.8-22.2-7.3-29-8.2
	c-2.5-0.3-4.9-0.5-7.4-0.5c-4.4,0-8.8,0.6-13.1,1.8c-8,2.3-13.6,7.2-17.9,11.2v0.1c-0.5,0.5-1,0.9-1.5,1.3c-4,3.2-7.5,7.2-10.1,11.7
	c-2.3,4.2-4.3,8.6-6,13.1l-0.5,0.9c-1.6,4.1-7.8,22-9.1,27.8c-1,4.7-1.7,9.4-2.2,14.1c-0.5,5.3-0.1,22.9,0.5,28
	c0.5,3.8,1.3,7.8,2,11.3l0.8,3c1.1,5.4,5.8,19.2,8.7,26.3c1,2.3,2.1,4.6,3.3,6.8c0.9,1.7,1.8,3.4,2.5,5.2l1.8,4.8
	c0.8,2.5,1.7,5.2,2.9,8.1c1,2.5,3.8,8.6,6.4,14.5l4.3,9.5c1.2,2.9,2.5,5.5,3.7,7.8c0.8,1.5,1.5,3,2.1,4.3c1,2.4,2.9,6.4,5,10.6
	c-2.1-0.3-4.2-0.5-6.2-0.5c-4.1,0.1-8.2,0.7-12.1,1.8l-1.3,0.3c-5.7,1.4-14.2,4-20.6,11.7l-1.7,2l-0.8-3.9c-0.2-1.5-0.4-3.3-0.5-5.2
	c-0.2-2.2-0.4-4.5-0.8-6.9L379,373c-0.8-5-2.1-13.4-2.3-15.6c-0.4-3.5-0.7-7.4-1-12.1c-0.2-1.5-0.5-4.6-0.8-8.3l-1.4-16.6l-0.5-8.7
	c-0.5-8.1-0.9-13.9-1.2-16.5l-0.4-4.9c-0.1-2.4-0.2-5-0.5-7.9c-0.5-4.4-1.2-8.7-1.8-12.8c-0.5-3-1-5.8-1.6-8.3l-0.9-4.5
	c-0.8-4.5-4.4-21.1-5.7-25.8s-7.5-22.4-10.2-27.4c-2.5-4.9-5.5-11-11.3-15.8c-6.1-5.1-13.4-7.6-22.4-7.6h-0.8
	c-6.7,0.2-13.3,1.9-19.3,5c-5.1,2.5-11.7,6.3-16.9,13.4c-2.8,4-4.9,8.4-6.2,13.1l-1,3.1l-1.8,3.8c-1.6,3.3-2.9,6.6-4,10.1
	c-1.4,4.4-2.7,8.5-3.9,12l-0.8,2.2c-1,3-2.5,7-3.9,11.9c-0.7,2.5-1.2,5.3-1.8,7.9l-1.3,5.6c-1,4.1-1.9,7.7-2.9,12.3l-2,9.3l-1,4.8
	l-1.9,9.8l-1.4,7.3c-1,4.8-3.6,19.1-4.3,22.8l-1.2,5.9c-0.5,2.5-1.1,5-1.5,7.6c-0.6,3.8-1.5,11.4-2.3,18.1c-0.5,3.8-0.9,7.5-1.1,9
	l-0.6,4.6c-0.4,3.2-0.9,6.4-1.3,9.2l-1,6.2c-0.2,2.1-0.5,4-0.9,6.2c-0.8,4.4-3.9,22.7-4.5,27.4c-0.3,1.9-1.5,8-2.5,12.4
	c-1.2,5.8-2,9.5-2.3,11.6c-0.5,2.7-1,6.3-1.7,10.1l-1.5,7.8c-0.1-3-0.3-5.8-0.5-8.5l-1.9-16.7l-0.9-7.3c-0.6-5.4-1.9-20.3-2-23.2
	c0-3.9,0.4-33.1,0.5-37l0.7-12.9c0.6-12.9,1-22.3,1.1-25c0-1.4,0-4.2,0.1-7.5c0-6.5,0.1-15.2,0.3-17.9c0.1-2.7,0-5.3-0.2-7.5
	c0-2-0.1-3.8,0-5.3c0-2.5,0.4-9.5,0.7-15.6c0.2-4.3,0.5-8.3,0.5-10.1c0.1-2.6,0.1-5,0.1-7.4V263c0.1-3,0-6.7-0.1-11.1
	c0-0.3,0-0.7-0.1-1l10.7-0.6l6.5-0.3l2-0.2c4.5-0.4,9.1-0.8,13.5-2.4c6.4-2.5,14.6-8.7,17.2-24.6c0.9-6,0.9-12.1-0.1-18.1
	c-1.4-11.6-6.7-18.6-10.9-22.4c-4.9-4.5-11.3-7.4-19.9-9.3c-5.4-1.3-10.9-2-16.4-2.1H220c-3.8,0.1-7.5,0.5-11.2,1.1
	c-1.2,0.2-2.5,0.4-3.7,0.5c-3.7,0.5-22.7,3-27.7,4.2l-8.1,1.9c-5.7,1.4-14.4,3.5-17.5,4c-2.9,0.5-5.8,1.2-8.7,2.1
	c-1.9,0.5-3.7,1.1-5.1,1.4c-3.4,0.6-24.4,4.9-29.7,6.7c-10.9,3.5-18.1,12.7-19.8,25.3c-0.8,6.2-1.3,15.6,2.8,24.7
	c5.5,12.3,18,14.3,23.3,15.1l1.5,0.2c3.7,0.7,7.4,1.1,11.1,1.1c1.2,0,2.3,0,3.4-0.1c1.4-0.1,3-0.2,4.7-0.2h1.7
	c0.1,6.5,0.2,19,0.1,21.2c-0.1,2.8-0.1,9.1-0.1,15.1v10c0,1.8-0.2,4.1-0.4,6.5c-0.2,2.8-0.4,5.7-0.5,8.4v26.3l-0.3,13l-0.2,2.2
	l-0.6,23.3c-0.1,2.7-0.1,9.3-0.1,15.7v9.7l-0.2,11.3c-0.1,3.9-0.6,20-0.8,23.8l-0.1,3.3l-0.5,8.3l-0.5,2.7c-0.6,3.3-1.1,6.6-1.4,9.9
	c-0.2,3.3-0.2,6.6,0,9.9l0.2,3.9c-0.1,6.4,1.2,12.8,3.8,18.7c6.5,15.2,18.1,16.8,22.9,16.8c2.2,0,4.4-0.3,6.5-0.9l1.9-0.5
	c7.4-2.2,11.3-3.3,14.1-4.7l0.9-0.4h2.3l2.2,0.1c1.1,0.1,2.1,0.1,3,0.1c15.9,0,21.7-11.9,24.8-18.3c0.6-1.3,1.5-3,2.4-5.2
	c-0.3,3.3,0,6.6,0.9,9.8c2.5,10.1,6.3,14.4,9.9,18c8,8,20.6,8.6,24.4,8.6c1.5,0,3,0,4.5-0.3c7.3-1.1,31.8-5.7,41.3-19.7
	c4.5-6.8,5.9-21.4,6.3-32.4v-0.6h0.3c2.5,0.1,6,0.4,10,0.5c-0.1,5.9-0.3,22.2-0.2,26.1v2.3c-0.1,3.7-0.2,8.8,1.7,14.1
	c2.6,7.6,8,14,15.1,17.8c6.8,3.7,15.4,4,18.6,4c1.8,0,3.6,0,5.4-0.2c8.6-1,17.2-4.4,22.5-8.9c6.9-5.9,9.6-12.1,11.4-17.8
	c1.2-3.8,2.4-12.9,3-20c1.6,3.2,3.5,6.3,5.6,9.2c6.1,8.3,13.8,15.2,22.6,20.5c3.9,2.5,21.6,10.9,30.2,12.1c3.4,0.4,6.8,0.6,10.2,0.7
	c2.3,0,4.6-0.2,6.9-0.5c5.7-0.8,11.3-2.4,16.6-4.6c5.3-2.3,10.3-5.3,14.8-8.8c5.5-4.1,17.9-19.4,21-25.8c0.5-0.9,0.9-1.8,1.4-2.6
	c2.1-3.8,3.7-7.8,5-11.9c0.5-1.7,1.4-5.4,2.2-9.9c0.2,2.9,0.6,5.7,1.2,8.6c0.9,6,3,11.7,6.2,16.9c2.8,4.3,9.7,11.6,24.4,11.6
	c1.8,0,3.5-0.1,5.2-0.3c4.5-0.6,9-1.6,13.3-3l2.5-0.7c2.5-0.8,4.7-1.5,6.5-2.2l3.2-1c8.6-0.5,14.6-3.4,18.6-6.9l0.8,1.5
	c2.4,5,5.3,9.8,8.5,14.3c3,4.1,6.4,7.8,10.2,11.2l0.8,0.8c4.1,3.9,8.7,8,14,10.9c8.5,4.5,23.9,9.8,31.2,10.4c2,0.2,4.3,0.3,6.7,0.3
	c8.3,0,20.2-1.2,26.2-3.3c12.6-4.3,21.8-14,25.8-18.1l0.3-0.3c3.6-3.7,7-7.6,10.2-11.7c4-5.3,12.2-21.5,13.6-24.8
	c2.3-5.3,4-10.9,5.3-16.5c1.3-5.3,2.2-10.6,2.8-16c0.5-4.5,0.7-9.3,0.8-15c0-2.8,0-5.5-0.2-8.1l-0.2-6c0-1.2,0-2.4,0.1-3.7
	c0.1-3.2,0.2-6.7,0-10.6c-0.2-2.2-0.5-4.2-0.7-6c-0.2-2-0.5-3.9-0.5-5c0.1-2.1,0-4.4-0.1-6.5c0.1,0,0.2,0,0.2-0.1l3.4-2.4
	c2-1.5,11.5-6.8,16.1-9.4c3-1.7,5.3-3,6.7-3.9c4-2.5,7.7-5.2,11.3-8.3l1.9-1.5c0.7-0.6,1.8-1.4,2.9-2.2c2.1-1.5,4.8-3.4,7.5-5.7
	c1.3-1.2,17.4-16.5,21.1-24.5c1-2.2,1.7-4.6,2.2-7L838,317.5L838,317.5z M540.6,267.1c0,2-0.2,4.4-0.5,6.8l-0.5,6.4
	c-0.1,2-0.6,8.2-1.1,13.2l-0.8,10.2l-0.4,6.5l-0.4,6c-0.1,2.5-0.2,5-0.2,7.2c0,1.7,0,3.3-0.2,5l-0.5,5.5c-0.4,2.7-0.8,5.4-0.9,8.1
	l-1.3,14.4c-1,11.7-1.7,19-1.8,21.5c-0.1,2.5,0,6.7,0,13.4c0,4,0.1,9.1,0,10.6c0,2.2,0,4.5-0.1,7c0,2.2-0.1,4.2-0.1,6.1
	c-0.1,1.9-0.5,7.9-0.9,12.6l-0.8,11.8c0,0.7,0,1.4-0.1,2.2c-0.2-2-0.5-4.1-0.8-6v-0.4c-0.6-3.6-1.7-7.2-3.2-10.6
	c-0.4-0.9-0.7-1.9-1-2.8c-1-4.1-2.2-8.4-3.6-13c-1.2-3.7-2.4-7.2-3.7-10.6l-0.8-1.9c-1.1-3.1-2.4-6-3.5-9c-0.5-1-0.9-2-1.3-3
	c-1.1-2.5-7.9-18.9-9.9-23.4l-5.3-11.4l-5.3-11.2c-0.5-1.1-0.9-2.3-1.2-3.5c-0.8-2.7-1.8-5.4-3-8.1l-2.4-5l-2.9-6
	c-1-2.2-2.1-4.2-3-6c-0.9-1.8-1.8-3.3-2.5-4.7l-2-5c-0.7-1.9-1.5-4-2.4-6.2c-0.8-1.7-1.5-3.5-2.2-5.5c0.1,0,0.1,0.1,0.2,0.1
	c3.6,2.4,8,5.3,14.1,5.7h2.2c7-0.1,13.8-2.5,19.3-6.9c5.7-4.3,9.9-10.4,11.9-17.2l0.4-1c1.2-3.7,2.8-8.8,2.8-14.6v-5.8l0.1-6.2
	c0-1.9-0.1-3.8-0.2-5.5c3.3,0.9,6.6,1.3,10,1.3c2.2,0,4.5-0.1,7.4-0.4l2.5-0.2c0,1.3,0,2.7,0.1,4.2c0,0.8,0,1.7,0.1,2.5
	c0.1,3.3,0,19.5-0.1,23.3L540.6,267.1z M660.5,360.9l-7.2,3.3l-2.3,1c-3.2,1.5-6.5,3-9.9,4.9c-3.3,1.9-6.4,4.1-9.4,6.5
	c-0.8,0.5-1.5,1.1-2.3,1.7c-4.9,3.7-9.5,7.9-13.8,12.3c-0.2,0-0.2,0.2-0.3,0.2c0.1-2,0.2-4.2,0.1-6.5l-0.4-24.3
	c0-2.3-0.1-4.8-0.2-7.1s-0.2-4.8-0.2-6.8c0-1.7,0.1-3.7,0.2-6c0.1-2.5,0.2-5.1,0.2-7.8v-5.5l0.1-6.3c0-4.2-0.2-18.6-0.3-22.8
	c0-2.5-0.2-5.7-0.3-8.7l-0.2-5.3l-0.3-6.8c-0.2-1.8-0.2-3.5-0.3-5.4l-0.6-10.1c-0.2-3.5-0.5-7.1-0.5-8.9c0-1.6-0.2-4.4-0.4-7.7
	l-0.5-7.8v-1.7l3.5-0.4l3.8-0.4c0.9,0,1.8,0,2.8-0.1c3.9,0,9.3-0.1,14.8-2.5c-1.1,6.5-2.6,16.6-3,19.8c-0.4,3-0.6,6-0.4,9.1v3.6
	l-0.5,4c-0.4,2.8-0.8,5.7-1,8.7l-0.6,4.5c-0.3,2.5-0.8,5.2-1,8.2c-0.2,3.2-0.8,21.9-0.3,27.3c0.4,6.6,2.3,13.1,5.3,18.9
	c2.4,4.5,5.3,8.7,8.6,12.6c3.5,3.8,7.5,7,12.1,9.4c1.6,0.9,3.3,1.8,5,2.5l-0.5,0.2L660.5,360.9z"/>
<path class="st1" d="M717.8,442c-0.3,4.6-1,9.1-2.2,13.5c-1.4,4.4-3.2,8.6-5.3,12.7c-1.8,3.8-4.5,7.2-7.8,9.8
	c-3.3,2.5-7.6,3.3-11.8,3.8c-4.1,0.3-8.2-0.2-12.1-1.5c-4.2-1.4-8.2-2.8-10.7-5.4c-2.7-3-4-7.1-4.8-11.1c-0.8-3.7-1.7-7.9-0.7-11.9
	c2.1-8,8.3-19.4,11.1-22.2c2.8-3.1,5.8-6,9-8.7c3-2.3,5.6-4.4,9-6.6c3.5-2.3,7.2-4.5,10.4-6.2c4.5-2.5,14.9-10.2,15.6-8.1
	c1.6,5-0.5,5.8,0.3,18.1c0.3,4,0.3,8,0,12c-0.2,3.6,0.6,7,0.1,11.8 M820.2,311.8c-1.3-3.7-3.3-7-5.8-9.9c-3.2-3.4-6-4.2-9.9-3.7
	c-3.4,0.4-6.7,2-10.5,4.4c-3.2,2-6.8,3.7-10.1,6.4l-9.1,7.5c-3.1,2.7-5.6,6-8.7,8.3c-3.2,2.4-6.8,4.3-10.5,5.8
	c-5.5,2.4-11.4,5.8-11.4,5.8c-1.5-1,0.1-11.8,0.7-15.4c0.5-3.1,1.2-8.5,2.2-13.9c0.8-4.1,1.7-7.7,2.5-12.2l2.9-13.3
	c1.1-5.4,1.7-9.6,2.4-12.7c0.7-3,1.4-7.1,2.5-11.8c0.9-3.6,1.6-7.7,2.5-11.9c1-3.8,1.8-7.9,2.5-11.9s1.1-8.2,1.5-12.1
	c0.5-4,0.7-8,0.7-12.1c-0.1-4.5,0.3-9.1-1-12.3c-1.7-4-5.3-6.9-9.6-7.6c-4.7-0.6-9-1-12.3-0.3c-4.4,1-7,4.5-9.6,7.3
	s-5.2,4.1-6.5,8.2c-1.2,3.7-0.5,6.4-1,10.6s-1.2,8-1.4,11.9c-0.2,4.4-0.9,13.4-1.3,17.5s-2.5,15.2-3.3,19.2
	c-0.8,4-1.3,16.3-2.2,21.9c-0.6,3.2-1,15.3-4.2,19.5c-2.7,3.7-7.3,5.5-12.8,5.7c-5.2,0.2-9.1-2.5-12.8-5.3c-2.9-2.1-3-11.1-3.2-17.1
	c-0.1-4.3,0.9-9.1,1.5-14.1c0.5-4.7,0.5-9.7,1.4-14c1.1-6,1.7-11.2,2.2-14s3.5-18.5,4.4-22.5c0.8-3.7,2.6-7.4,3.3-11
	c0.8-4,1.2-8.2,1.7-11.6c0.9-5.8,1.4-10.1,0.5-11.1c-2.4-2.6-6.8-4.4-11.6-4.9c-4.2-0.5-8.4,1.2-12.3,2.5c-4.4,1.4-8.9,2.5-10.7,6.1
	c-1.8,3.8-3.1,7.7-3.9,11.8c-0.8,3.5-3.8,19.9-4.5,24.2c-0.6,3.9-3.2,20.2-3.7,24.4c-0.6,4.1,0.1,8.3-0.4,12.3
	c-0.5,4-1,8.3-1.4,12.2c-0.3,4.2-1.3,8.2-1.5,12.2c-0.2,4.3-0.8,21-0.4,24.7c0.3,4.2,1.4,8.2,3.2,12c1.7,3.3,3.8,6.5,6.2,9.3
	c2.2,2.4,4.8,4.5,7.8,6c3.7,2,7.6,3.5,11.7,4.4l11.7,2.1c4,0.6,7.5,0.7,11.6,1.4c6.8,1.1,17.8-0.5,17.8-0.6c0.1,0.7-8,6.2-13.8,9.2
	c-3.2,1.7-6.8,3.5-10.6,5.2c-3.7,1.7-7.3,3.5-10.6,5c-5.2,2.4-9.3,4.5-10.6,5.1c-3.7,1.7-7.5,3.3-11.1,5c-3.8,1.7-7.7,3.4-11.2,5.4
	s-6.4,4.4-9.7,6.9c-4,3.1-7.8,6.5-11.3,10.2c-2.9,3.2-9.1,15.8-10.2,20.1c-1.1,4.2-1.9,8.5-2.3,12.8c-0.3,4.3-1.4,8.8-1,13.2
	c0.4,4.4,1.1,8.7,2,13c1,4.3,6.5,20.1,8.4,24c2.1,4.1,4.4,8.2,7,12c2.6,3.4,5.6,6.6,8.8,9.4c3.1,3.2,6.6,6,10.4,8.3
	c6.9,3.8,20,8,24.4,8.3c8.6,0.7,21.9-0.8,25.7-2c9.1-3.2,16.5-11.2,19.4-14.2s6.3-6.8,8.9-10.1c2.5-3.4,10-17.7,11.6-21.4
	c1.8-4.4,3.2-9,4.3-13.6c1.1-4.5,1.9-9,2.4-13.6c0.4-4.2,0.6-8.8,0.8-13.7c0.1-4.2-0.3-8.8-0.2-13.7c0-4.2,0.4-8.6,0.1-12.9
	s-1.3-8.7-1.2-13c0-4.5-0.9-11.8-0.5-13.4c0.7-2.3,7.2-6.3,10.9-9.1c3.7-2.8,20.3-11.9,24.2-14.3c3.9-2.5,7.7-5.4,11.2-8.5
	c2.5-2,6.4-4.5,10-7.5c3-2.7,15.1-15.2,16.6-18.6c2-4,0.8-8.3-0.5-12.3 M636.8,206.2c1.6-3.5,2.3-7.3,2.2-11.2
	c-0.3-3.9-1.7-7.6-4.1-10.7c-2-2.3-7-3.8-11.9-4c-4.6-0.4-9.4,0.8-12.2,0.7c-4.7,0-9.6-0.9-14.1-1c-4.7,0-9.4-0.1-14.1-0.2
	c-4.5-0.1-9.3,0.2-14,0.1c-4.5,0-9.2,0.9-14,0.8c-2.7,0-7.1-0.6-11.9-0.8c-3.9-0.2-7.9,0.1-11.8,0.7c-4.5,0.8-8.1,2.2-9.8,5.3
	c-1.1,2-3.8,5.8-4.5,10.4c-0.5,3.5,0.8,7.8,1.3,11.5c0.5,4,1.5,7.4,3.9,10.1c2.5,2.9,8.4,2.8,14.5,2.2c5.7-0.5,17.6-1.8,19.3-0.7
	c1.3,0.8,0.7,5.9,1.6,11.6c0.5,4.1,0.8,8.2,0.8,12.4c0.2,3.7,0.1,20.3-0.1,24.7c-0.2,3.9-0.7,9.1-1,13.4c-0.2,4-1.7,19.3-2,23.5
	c-0.2,4-0.4,8.4-0.7,12.6c-0.4,4-0.2,8-0.4,12.1c-0.2,4.1-1.2,9.4-1.5,13.6c-0.2,4-2.8,31.2-3,35.3s0.2,19.8,0.1,23.8l-0.3,13.1
	c-0.2,4.2-1.5,20.6-1.7,24.5c-0.2,4.4-1.6,20-1.9,23.2c-0.2,3.7,0.1,7.5,0.9,11.2c0.5,3.2,1.1,6.8,3.5,10.5
	c2.2,3.4,7.8,4.1,13.2,3.5c4.2-0.5,8.7-2,13.1-3.2c5.5-1.5,10.2-3.5,12.8-3.7c6.1-0.2,9.7-2.4,11.4-5.7s2.3-7.8,2-13.1
	c-0.3-4-1.4-8.6-1.8-13.3l-0.9-12.8l-0.6-12.8c-0.1-4.3-0.5-8.6-0.7-12.9l-0.4-12.8c-0.1-4.3,0.3-8.6,0.2-12.9
	c0-4.3-0.5-20.3-0.5-24.7c0-4.3-0.3-9.7-0.4-14.1c0-4.1,0.5-9.3,0.5-13.7l0.1-11.9c0-4-0.2-18.4-0.4-22.4c-0.1-4-0.3-9.8-0.4-13.8
	s-0.5-8.1-0.6-12.2c-0.1-3.9-1-14.8-1.1-18.8l-0.8-15.4c-0.2-3.8-1.3-14.7-1.3-17.6c0-2.4,6-1.7,13.1-1.8c4.3-0.1,8.3-0.9,11.9-1.1
	c4.5-0.2,8.7,0.2,11.8-1.3c3.3-1.6,5.3-5.2,6.7-9.8 M446.8,277.7c-1.2-3.1-3.4-8.9-4-14.2c-0.4-4-0.1-17.1,1.2-21.5
	s4.2-12.8,6.7-16.5c2.3-3.5,5.2-6.5,8.7-8.9c4.4-2.9,9.1-0.8,11.1,2.9c2.7,5,0.9,19.3,0,23.5c-0.9,4-3.5,7.8-3.9,11.7
	c-0.4,4.4,1.7,8.2,3.5,11.6c0.9,1.5,3.5,3.9,7,5.9c3.2,1.9,6.3,4.4,8.4,4.5c4.3,0.4,7.4-1.4,9.9-3.3c2.9-2.1,4.9-5.1,5.9-8.6
	c1-3.2,2.3-6.9,2.3-10.5V242c0-4-0.5-8.1-0.8-11.9c-0.2-4,0-8.2-0.7-12c-0.7-4-1.8-7.8-3.3-11.6c-1.5-3.8-3.7-7.2-6.6-10.2
	c-2.7-3.1-5.9-5.6-9.4-7.6c-3.5-1.9-7.6-2.5-11.4-4c-3.7-1.3-21-6.8-25.2-7.3c-4.5-0.7-9.2-0.4-13.6,0.8c-4.2,1.2-7.6,4.2-11.1,7.6
	c-3,2.7-5.6,4.4-8.2,8.8c-2.1,3.8-3.9,7.8-5.4,11.8c-1.7,4-7.3,20.8-8.1,24.9c-0.9,4-1.6,8-2,12.1c-0.3,8.1-0.1,16.3,0.5,24.4
	c0.5,3.9,1.7,8.9,2.5,12.8c0.9,4,4.9,16.5,7.7,23.2c1.5,3.6,3.9,7.5,5.8,11.9c1.6,3.9,2.8,8.6,4.5,12.7c1.8,4,9.1,19.9,10.8,23.8
	c1.9,4.4,4,8.3,5.6,11.9c2.4,5.3,10.1,20.7,12.2,25s3.8,9.1,5.6,13.5c1.9,4.5,3.5,9.1,4.7,13.8c0.7,3,4.8,18.9,5.2,22.8
	s-0.5,17.1-4.3,22.6c-2.8,4.2-4.7,6-9.4,5.7c-5.7-0.5-9.2-4.7-10.8-9.4c-2-5.6-1.3-12.5-1.3-14.6c0-3,0.6-7.5,0.5-12.6
	c0-4-1.2-8.2-1.9-12.4c-0.7-4.1-2.1-8-4.3-11.6c-2.2-3.5-4.9-6.8-9.3-7.8c-5-1.2-9.3,0.3-13.2,1.2c-4.7,1.1-8.6,2.7-11.4,6
	c-2.9,3.3-5.4,7.3-6,12.1c0,0,0.6,20.4,1.2,25c0.5,3.9,2,7.8,3,12.1c1,4,2.3,8,3.8,11.8c1.4,3.8,9,18.4,11.6,21.8
	c2.4,3.3,5.2,6.4,8.2,9.2c3.1,2.7,6.4,5.2,9.9,7.3c3.4,2.2,18.4,8.8,23,9.4c4.2,0.7,8.5,0.8,12.7,0.3c4.2-0.6,8.4-1.9,12.3-3.6
	c3.9-1.7,7.6-3.9,10.8-6.6c3.3-2.5,13.9-15.5,15.9-19.6c1.9-3.8,4.2-7.8,5.4-11.7s4-19.7,3.9-23.9c-0.2-4.2-0.6-8.4-1.3-12.5
	c-0.5-4-2.9-7.7-3.9-11.8c-1-3.9-2.1-7.8-3.3-11.8c-1.2-3.8-2.7-7.7-4.1-11.6s-3-7.6-4.5-11.4s-7.9-18.9-9.7-22.8l-5.2-11.2
	l-5.3-11.1c-1.8-3.7-2.5-7.9-4.3-11.7c-1.8-3.8-3.5-7.3-5.3-11.1c-1.7-3.8-3.8-7.3-5.5-11.1s-2.9-7.7-4.5-11.6
	c-1.6-3.7-2.9-7.6-4.5-11.4s-3.4-7.5-4.8-11.3 M327.5,421.4c-3.9,1-19.1,0.5-23.2,0.1c-5.6-0.5-11.8,0.2-12.4-1.4
	c-0.7-1.9,1.3-10.2,1.5-15.1c0.1-4.5,1.1-15.9,1.9-22c0.5-3.8,0.5-8.2,1.1-13c0.5-4,2-21.7,2.7-26c0.7-4.4,1.8-8.6,2.5-12.8
	c0.8-4.3,1.3-8.7,2-12.8c0.8-4.5,4-21.4,5-25.1c1.7-7,3.8-14.1,5.2-14c1.2,0.1,2.2,7.2,3,14.9l3.4,41l2,26.6
	c0.3,4.4,1.5,8.8,1.8,13.2s1,8.9,1.3,13.1c0.4,4.9,0.8,9,1,12.9c0.4,6.2,3,19.9,1,20.4 M374.6,481.6c0.2-4.2-1.1-8.4-1.3-12.4
	s0-8.4-0.4-12.4c-0.5-4.3-1.8-21.1-2.4-24.8c-0.9-4.9-3.3-20.3-3.8-24.3c-0.5-4-1.7-8-2.3-12.1c-0.6-4-0.7-8.1-1.3-12.1
	c-0.6-4-3.4-20.2-3.8-24.4l-1.1-12.4c-0.4-4.1-1.8-20.6-2-24.8s-1.3-20.8-1.7-24.9s-0.4-8.3-0.9-12.4s-1-8.3-1.7-12.4
	s-1.7-8.2-2.4-12.2c-0.8-4.1-4.3-20.3-5.4-24.3c-1.2-4.2-7.1-20.4-8.9-24.1c-2.2-4.1-4.1-8-7.1-10.5c-3.3-2.8-7-3.6-11.8-3.5
	c-3.6,0-7.4,1-12.1,3.2c-4,2-7.8,4.4-10.6,8.1c-2.5,3.5-3.4,8.1-5.1,12.4c-1.7,4.1-3.9,8.1-5.2,12.4c-1.4,4.5-2.8,8.9-4.2,12.8
	c-1,3-2.8,7.4-4.2,12.6c-1,3.9-1.8,8.4-2.9,13.1c-1,4-1.9,7.5-2.9,12.1l-2.9,13.9c-1,4.4-2.3,12.6-3.2,17
	c-0.9,4.5-3.5,18.3-4.2,22.5c-0.9,4.8-2,9.1-2.7,13.1c-0.9,5.6-2.6,22.2-3.2,26.7c-0.6,4.5-1.3,9.8-2,14.3s-1.2,8.2-2,12.6
	c-0.8,4.5-3.8,22.5-4.4,26.9s-4.3,20.5-4.8,24.1s-1.1,7.2-1.8,10.7s-1.4,7-2.1,10.7c-0.9,4.5-3.2,13.5-2,18.1
	c1.7,6.2,3.4,8.1,5.5,10.1c2.9,3,10.7,4,14.1,3.5c6.8-1.1,24.7-5.4,29.4-12.3c2.2-3.3,3.3-19.4,3.4-23.3c0.1-4.1,0.7-15.6,1.4-16.7
	c1-1.3,6.2-0.9,14.5-0.9c1.8,0.1,7.5,0.8,13.3,0.7c5.8,0,14.7-0.1,15.2,0.7c0.7,1.3,0.6,10.3,0.5,16.2s-0.3,22.8-0.2,26.4
	c0.1,3.9-0.4,7.7,0.8,10.9c1.2,3.5,3.7,6.4,6.9,8.2c2.7,1.5,8.4,2.5,13.9,1.9s10.8-2.9,13.1-4.9c3.9-3.3,5-6.3,6.1-9.8
	c1-3,2.7-18.8,2.8-23.6 M250.5,206.9c-0.5-5-2.2-9.2-5.2-11.9s-7.4-4.2-12.1-5.2c-4.3-1-8.7-1.6-13.1-1.7c-4.2,0-8.6,1-13.1,1.5
	c-4.3,0.5-22,3-25.9,3.9c-5.3,1.2-21,5.1-26.4,6c-4.4,0.8-8.9,2.7-13.7,3.5s-23.8,4.9-27.2,6c-4.7,1.6-7.2,5.4-8,11.3
	c-0.6,4.8-0.9,10.4,1.3,15.3c1.7,3.7,5.8,4.5,10.3,5.2c3.7,0.6,7.7,1.6,11.9,1.2c4-0.4,8.4-0.1,12-0.5c5.7-0.5,11.2-1.7,11.9-0.4
	s0.7,7.7,1,13.4c0.2,4.2,0.4,23.4,0.2,26.3c-0.1,4.3,0,20.4,0,24.8c0,4.4-0.8,10.4-0.9,14.8v26.4c-0.1,4.4-0.3,11-0.5,15.4
	c0,4.4-0.5,19.2-0.5,23.3c0,4.1-0.2,20.3-0.2,24.4l-0.2,12.2c-0.1,4-0.6,20.3-0.8,24.4c-0.2,4-0.3,8.2-0.7,12.2
	c-0.2,2.8-1.4,7.3-1.8,12.4c-0.2,4,0.2,8.6,0.2,12.6c0,4.1,0.8,8.2,2.4,11.9c1.8,4.2,4.5,7.2,8.8,6c4.1-1.3,11.1-3.1,12.8-4
	c5.2-2.7,7.1-2.3,11.3-2.3c7.8,0.1,9.4,1.8,14.3-8.5c1.6-3.2,3.4-7,3.6-11.4c0.2-4,0.1-8.1-0.3-12.1c-0.3-3.9-2.4-20.1-2.7-23.6
	c-0.5-4.2-2-20.6-2-24.9c0-4.2,0.3-33.7,0.5-37.9c0.2-4.1,1.5-33.2,1.6-37.6c0.1-4.4,0.2-21.5,0.4-25.8c0.2-4.3-0.3-8.6-0.2-12.9
	s1-21.5,1.3-25.8c0.3-4.3-0.1-8.6,0.1-12.8c0.2-5.9-1-19.6-0.2-25.1c0.4-2.5,9.2-2.3,10.9-2.9c2.5-1,18.3-1.5,21.9-1.8
	c4.3-0.4,8.5-0.6,11.1-1.5c3.5-1.4,5.3-5.9,6.2-11.2c0.7-4.2,0.6-8.6-0.2-12.8"/>
</svg>
